<?xml version="1.0" standalone="no"?>
<!DOCTYPE svg PUBLIC "-//W3C//DTD SVG 20010904//EN"
 "http://www.w3.org/TR/2001/REC-SVG-20010904/DTD/svg10.dtd">
<svg version="1.0" xmlns="http://www.w3.org/2000/svg"
 width="505.000000pt" height="476.000000pt" viewBox="0 0 505.000000 476.000000"
 preserveAspectRatio="xMidYMid meet">

<g transform="translate(0.000000,476.000000) scale(0.100000,-0.100000)"
fill="#000000" stroke="none">
<path d="M2350 4500 c-14 -4 -49 -8 -79 -9 -30 -1 -79 -8 -110 -17 -31 -9 -74
-20 -96 -26 -131 -33 -356 -119 -490 -185 -95 -47 -249 -145 -350 -221 -89
-68 -258 -235 -332 -330 -189 -242 -368 -608 -423 -867 -45 -211 -52 -289 -47
-495 6 -199 11 -253 43 -410 84 -406 304 -807 597 -1087 327 -311 681 -495
1072 -557 313 -49 520 -49 815 1 263 43 526 150 761 310 396 269 698 654 837
1069 69 203 99 351 110 547 14 232 -9 488 -60 677 -11 41 -24 89 -28 105 -58
220 -195 479 -368 696 -252 316 -637 578 -1042 707 -122 39 -298 80 -375 87
-108 10 -409 14 -435 5z m450 -80 c146 -14 381 -68 406 -93 4 -4 16 -7 26 -7
10 0 41 -11 70 -25 28 -14 58 -25 65 -25 7 0 13 -4 13 -9 0 -5 10 -13 23 -17
12 -4 24 -10 27 -13 3 -4 21 -15 40 -24 45 -22 69 -38 94 -59 11 -10 28 -20
38 -24 10 -3 18 -10 18 -15 0 -5 6 -9 13 -9 8 0 20 -11 27 -25 7 -14 19 -25
27 -25 7 0 13 -4 13 -10 0 -16 -14 -12 -38 10 -12 11 -24 20 -27 20 -4 0 -3
-9 0 -20 8 -25 -13 -27 -30 -3 -17 22 -47 10 -43 -18 3 -23 -4 -28 -62 -49
-19 -6 -56 -20 -81 -30 -25 -9 -63 -20 -84 -24 -20 -4 -63 -19 -94 -33 -69
-32 -82 -37 -151 -58 -30 -9 -57 -21 -60 -25 -3 -5 -28 -14 -55 -21 -28 -6
-74 -22 -103 -35 -29 -13 -62 -24 -75 -24 -38 0 -157 -50 -157 -65 0 -6 -30
-16 -68 -22 -43 -7 -81 -20 -106 -37 -21 -14 -46 -26 -55 -26 -9 -1 -39 -9
-68 -19 -29 -10 -50 -14 -47 -9 3 4 1 8 -4 8 -6 0 -12 -6 -15 -14 -4 -9 6 -20
26 -30 38 -18 39 -21 123 -263 87 -249 116 -331 154 -433 95 -260 260 -756
260 -786 0 -44 -27 -49 -276 -49 -262 0 -260 -1 -284 78 -8 23 -19 53 -26 67
-11 21 -81 232 -102 310 -18 62 -58 6 -108 -152 -14 -46 -61 -177 -104 -293
-42 -115 -95 -259 -116 -319 -21 -60 -48 -121 -60 -135 l-22 -26 -334 -3
c-345 -3 -393 -1 -401 22 -7 16 122 400 149 447 20 34 21 34 115 42 78 6 97
11 112 28 9 12 17 29 17 38 0 9 13 50 29 91 16 41 58 163 94 270 36 107 75
220 87 250 19 48 56 145 73 190 3 8 13 40 22 70 10 30 21 62 26 72 19 38 69
199 69 222 0 14 4 26 9 26 8 0 51 94 51 112 0 19 50 118 60 118 5 0 10 5 10
10 0 17 -17 11 -49 -16 -18 -15 -31 -35 -31 -49 0 -12 -7 -28 -15 -35 -8 -7
-15 -23 -15 -36 0 -20 -5 -24 -30 -24 -17 0 -53 -11 -80 -25 -27 -14 -57 -25
-66 -25 -31 0 -94 -23 -94 -35 0 -6 -29 -18 -65 -25 -36 -8 -71 -20 -77 -27
-6 -7 -18 -13 -27 -13 -9 0 -29 -7 -46 -16 -30 -16 -44 -21 -145 -47 -30 -8
-83 -28 -118 -45 -34 -17 -77 -33 -95 -37 -46 -9 -87 -26 -87 -36 0 -5 -5 -9
-11 -9 -6 0 -25 -6 -42 -14 -18 -8 -45 -17 -62 -19 -16 -3 -52 -13 -78 -24
-46 -17 -49 -17 -58 0 -8 14 -14 16 -25 6 -19 -15 -18 -36 2 -47 24 -13 13
-34 -19 -38 -24 -2 -27 1 -27 27 0 16 5 29 10 29 6 0 10 24 10 54 0 39 4 55
15 60 11 4 14 13 9 31 -4 16 0 34 10 50 9 13 16 33 16 43 0 10 4 22 8 27 5 6
17 33 27 60 10 28 26 64 35 80 9 17 28 51 43 77 40 72 107 171 120 176 4 2 7
10 7 17 0 14 247 269 305 315 233 186 533 342 815 422 111 31 264 58 395 69
65 5 122 12 125 16 5 5 108 -1 280 -17z m402 -932 c14 -22 54 -132 168 -458
67 -193 139 -392 151 -415 5 -11 13 -33 18 -50 5 -16 23 -68 41 -115 17 -47
52 -146 77 -220 57 -173 72 -207 92 -217 9 -4 59 -12 111 -18 l94 -10 36 -105
c20 -58 53 -151 73 -208 20 -57 34 -109 31 -117 -3 -7 -15 -16 -27 -19 -12 -3
-171 -6 -353 -6 -303 0 -332 1 -346 18 -8 9 -40 91 -72 182 -32 91 -70 199
-86 240 -16 41 -40 108 -54 148 -14 39 -38 105 -52 145 -28 78 -39 108 -77
207 -29 76 -43 118 -144 420 -42 124 -86 252 -99 285 -13 33 -24 69 -24 80 0
12 -4 25 -9 30 -24 28 -55 179 -41 206 10 18 24 19 244 19 231 0 234 0 248
-22z"/>
<path d="M3538 4113 c7 -3 16 -2 19 1 4 3 -2 6 -13 5 -11 0 -14 -3 -6 -6z"/>
<path d="M3585 4090 c3 -5 8 -10 11 -10 2 0 4 5 4 10 0 6 -5 10 -11 10 -5 0
-7 -4 -4 -10z"/>
<path d="M3448 4038 c9 -9 15 -9 24 0 9 9 7 12 -12 12 -19 0 -21 -3 -12 -12z"/>
</g>
</svg>
