<?xml version="1.0" standalone="no"?>
<!DOCTYPE svg PUBLIC "-//W3C//DTD SVG 20010904//EN"
 "http://www.w3.org/TR/2001/REC-SVG-20010904/DTD/svg10.dtd">
<svg version="1.0" xmlns="http://www.w3.org/2000/svg"
 width="451.000000pt" height="430.000000pt" viewBox="0 0 451.000000 430.000000"
 preserveAspectRatio="xMidYMid meet">

<g transform="translate(0.000000,430.000000) scale(0.100000,-0.100000)"
fill="#000000" stroke="none">
<path d="M1965 4035 c-178 -28 -414 -104 -576 -185 -360 -182 -692 -532 -855
-900 -123 -280 -172 -532 -161 -835 12 -327 102 -621 281 -915 84 -138 168
-240 298 -365 283 -272 620 -439 983 -489 179 -24 281 -28 445 -17 264 19 441
64 667 171 501 238 872 688 1008 1226 14 53 25 106 24 118 -1 11 -7 -8 -15
-43 -36 -165 -119 -370 -201 -499 l-37 -57 -8 38 c-4 20 -15 48 -23 61 -14 21
-14 27 6 72 108 250 159 489 159 748 0 213 -31 385 -101 571 -116 309 -284
539 -581 795 -76 67 -83 75 -62 78 14 2 48 -4 77 -14 215 -70 417 -255 577
-527 84 -144 144 -295 189 -482 11 -44 20 -71 20 -60 2 51 -65 280 -115 394
-263 597 -814 1021 -1451 1116 -124 18 -431 18 -548 0z m-385 -268 c14 -7 34
-29 44 -48 31 -57 12 -86 -105 -170 -91 -64 -104 -78 -100 -102 2 -13 -37
-122 -69 -192 -34 -74 -90 -206 -90 -212 0 -2 15 -1 33 2 26 5 41 0 87 -33 38
-26 54 -44 53 -58 -7 -54 -12 -84 -27 -140 -20 -78 -32 -153 -51 -324 -8 -74
-21 -164 -29 -200 -8 -36 -17 -91 -21 -122 -3 -32 -11 -60 -16 -63 -5 -4 -9
-14 -9 -24 0 -37 -35 -127 -68 -176 -40 -59 -49 -66 -79 -58 -14 3 -23 1 -23
-6 0 -17 -19 -13 -43 10 -12 12 -38 33 -57 47 -19 15 -38 31 -42 37 -5 6 -11
6 -19 -2 -10 -10 -15 -9 -26 5 -12 16 -13 15 -7 -3 4 -12 -10 -2 -34 25 -23
25 -41 50 -42 55 -1 14 -59 79 -73 81 -7 1 -24 7 -39 13 l-28 11 0 121 c0 106
-3 126 -21 155 -11 19 -25 34 -30 34 -5 0 -25 17 -44 37 l-35 37 -29 -65 c-15
-35 -36 -90 -45 -121 -9 -32 -23 -83 -32 -113 -9 -33 -21 -55 -29 -55 -22 0
-28 61 -22 214 9 217 57 402 162 623 172 362 478 658 795 769 73 26 171 31
210 11z m615 -1234 c82 -214 176 -460 210 -548 l61 -160 -205 -3 c-118 -1
-207 1 -210 7 -3 5 -40 102 -81 215 -41 113 -77 206 -81 206 -3 0 -13 -24 -24
-52 -23 -68 -238 -640 -260 -695 l-17 -43 -294 0 c-229 0 -294 3 -294 13 0 6
26 82 59 167 l58 155 86 3 c52 2 89 8 95 15 10 13 16 29 259 662 91 237 167
433 170 438 2 4 75 7 162 7 l158 0 148 -387z m605 305 c17 -46 113 -297 213
-558 l182 -475 90 -3 90 -3 58 -154 c31 -84 57 -160 57 -169 0 -14 -32 -16
-293 -16 l-293 0 -31 83 c-17 45 -142 372 -277 726 -135 354 -246 645 -246
647 0 2 94 4 209 4 l209 0 32 -82z"/>
<path d="M4082 2480 c0 -14 2 -19 5 -12 2 6 2 18 0 25 -3 6 -5 1 -5 -13z"/>
<path d="M4092 2415 c0 -16 2 -22 5 -12 2 9 2 23 0 30 -3 6 -5 -1 -5 -18z"/>
<path d="M4102 2310 c0 -14 2 -19 5 -12 2 6 2 18 0 25 -3 6 -5 1 -5 -13z"/>
<path d="M4102 2050 c0 -19 2 -27 5 -17 2 9 2 25 0 35 -3 9 -5 1 -5 -18z"/>
<path d="M4092 1960 c0 -19 2 -27 5 -17 2 9 2 25 0 35 -3 9 -5 1 -5 -18z"/>
<path d="M4082 1890 c0 -14 2 -19 5 -12 2 6 2 18 0 25 -3 6 -5 1 -5 -13z"/>
</g>
</svg>
